<svg width="241" height="87" viewBox="0 0 241 87" fill="none" xmlns="http://www.w3.org/2000/svg">
<path d="M93.744 65.4479C92.9333 65.4479 92.2293 65.2559 91.632 64.8719C91.0347 64.4452 90.5653 63.7626 90.224 62.8239L80.688 37.4159C80.3893 36.6052 80.304 35.9012 80.432 35.3039C80.56 34.7066 80.8587 34.2372 81.328 33.8959C81.7973 33.5546 82.416 33.3839 83.184 33.3839C83.9093 33.3839 84.4853 33.5546 84.912 33.8959C85.3387 34.2372 85.7013 34.8559 86 35.7519L94.704 60.3279H93.168L102.128 35.6239C102.427 34.8559 102.811 34.3012 103.28 33.9599C103.792 33.5759 104.411 33.3839 105.136 33.3839C105.904 33.3839 106.544 33.5759 107.056 33.9599C107.568 34.3012 107.931 34.8559 108.144 35.6239L116.976 60.3279H115.504L124.336 35.6239C124.635 34.7706 125.019 34.1946 125.488 33.8959C125.957 33.5546 126.533 33.3839 127.216 33.3839C127.984 33.3839 128.56 33.5759 128.944 33.9599C129.328 34.3439 129.541 34.8559 129.584 35.4959C129.669 36.0932 129.584 36.7332 129.328 37.4159L119.792 62.8239C119.493 63.7199 119.024 64.3812 118.384 64.8079C117.787 65.2346 117.083 65.4479 116.272 65.4479C115.461 65.4479 114.736 65.2346 114.096 64.8079C113.499 64.3812 113.029 63.7199 112.688 62.8239L103.536 37.7359H106.48L97.328 62.8239C96.9867 63.7199 96.5173 64.3812 95.92 64.8079C95.3227 65.2346 94.5973 65.4479 93.744 65.4479ZM149.42 65.5759C146.348 65.5759 143.681 64.9146 141.42 63.5919C139.159 62.2692 137.409 60.3919 136.172 57.9599C134.935 55.5279 134.316 52.6692 134.316 49.3839C134.316 46.9092 134.657 44.6906 135.34 42.7279C136.065 40.7226 137.089 39.0159 138.412 37.6079C139.735 36.1999 141.313 35.1332 143.148 34.4079C145.025 33.6399 147.116 33.2559 149.42 33.2559C152.492 33.2559 155.159 33.9172 157.42 35.2399C159.681 36.5626 161.431 38.4399 162.668 40.8719C163.905 43.2612 164.524 46.0986 164.524 49.3839C164.524 51.8586 164.161 54.0986 163.436 56.1039C162.753 58.1092 161.751 59.8159 160.428 61.2239C159.105 62.6319 157.505 63.7199 155.628 64.4879C153.793 65.2132 151.724 65.5759 149.42 65.5759ZM149.42 60.9679C151.297 60.9679 152.919 60.5199 154.284 59.6239C155.692 58.7279 156.759 57.4266 157.484 55.7199C158.252 54.0132 158.636 51.9012 158.636 49.3839C158.636 45.6292 157.804 42.7706 156.14 40.8079C154.476 38.8452 152.236 37.8639 149.42 37.8639C147.585 37.8639 145.964 38.3119 144.556 39.2079C143.191 40.0612 142.124 41.3412 141.356 43.0479C140.588 44.7546 140.204 46.8666 140.204 49.3839C140.204 53.1386 141.036 56.0186 142.7 58.0239C144.407 59.9866 146.647 60.9679 149.42 60.9679ZM185.233 65.5759C182.161 65.5759 179.494 64.9146 177.233 63.5919C174.971 62.2692 173.222 60.3919 171.985 57.9599C170.747 55.5279 170.129 52.6692 170.129 49.3839C170.129 46.9092 170.47 44.6906 171.153 42.7279C171.878 40.7226 172.902 39.0159 174.225 37.6079C175.547 36.1999 177.126 35.1332 178.961 34.4079C180.838 33.6399 182.929 33.2559 185.233 33.2559C188.305 33.2559 190.971 33.9172 193.233 35.2399C195.494 36.5626 197.243 38.4399 198.481 40.8719C199.718 43.2612 200.337 46.0986 200.337 49.3839C200.337 51.8586 199.974 54.0986 199.249 56.1039C198.566 58.1092 197.563 59.8159 196.241 61.2239C194.918 62.6319 193.318 63.7199 191.441 64.4879C189.606 65.2132 187.537 65.5759 185.233 65.5759ZM185.233 60.9679C187.11 60.9679 188.731 60.5199 190.097 59.6239C191.505 58.7279 192.571 57.4266 193.297 55.7199C194.065 54.0132 194.449 51.9012 194.449 49.3839C194.449 45.6292 193.617 42.7706 191.953 40.8079C190.289 38.8452 188.049 37.8639 185.233 37.8639C183.398 37.8639 181.777 38.3119 180.369 39.2079C179.003 40.0612 177.937 41.3412 177.169 43.0479C176.401 44.7546 176.017 46.8666 176.017 49.3839C176.017 53.1386 176.849 56.0186 178.513 58.0239C180.219 59.9866 182.459 60.9679 185.233 60.9679ZM212.22 65.4479C211.282 65.4479 210.557 65.1919 210.045 64.6799C209.533 64.1679 209.277 63.4212 209.277 62.4399V38.3119H205.437C204.669 38.3119 204.071 38.1199 203.645 37.7359C203.218 37.3092 203.005 36.7546 203.005 36.0719C203.005 35.3466 203.218 34.7919 203.645 34.4079C204.071 34.0239 204.669 33.8319 205.437 33.8319H210.877L209.277 35.3679V32.9999C209.277 28.8612 210.279 25.7252 212.285 23.5919C214.333 21.4159 217.319 20.1572 221.245 19.8159L223.229 19.6879C223.869 19.6026 224.381 19.7092 224.765 20.0079C225.149 20.2639 225.405 20.6052 225.533 21.0319C225.661 21.4586 225.661 21.9066 225.533 22.3759C225.447 22.8026 225.255 23.1866 224.957 23.5279C224.658 23.8692 224.274 24.0612 223.805 24.1039L222.397 24.1679C219.837 24.3812 217.981 25.1492 216.829 26.4719C215.677 27.7519 215.101 29.6719 215.101 32.2319V34.7919L214.269 33.8319H221.628C222.439 33.8319 223.058 34.0239 223.485 34.4079C223.911 34.7919 224.125 35.3466 224.125 36.0719C224.125 36.7546 223.911 37.3092 223.485 37.7359C223.058 38.1199 222.439 38.3119 221.628 38.3119H215.101V62.4399C215.101 64.4452 214.141 65.4479 212.22 65.4479ZM233.176 53.1599C232.621 53.1599 232.152 52.9892 231.768 52.6479C231.426 52.2639 231.234 51.6879 231.192 50.9199L229.784 23.2079C229.698 22.0559 229.954 21.1386 230.552 20.4559C231.149 19.7732 232.024 19.4319 233.176 19.4319C234.285 19.4319 235.138 19.7732 235.736 20.4559C236.333 21.1386 236.589 22.0559 236.504 23.2079L235.095 50.9199C235.053 51.6879 234.861 52.2639 234.52 52.6479C234.178 52.9892 233.73 53.1599 233.176 53.1599ZM233.176 65.2559C232.066 65.2559 231.149 64.8932 230.424 64.1679C229.698 63.4426 229.336 62.5252 229.336 61.4159C229.336 60.3066 229.698 59.4106 230.424 58.7279C231.149 58.0452 232.066 57.7039 233.176 57.7039C234.37 57.7039 235.288 58.0452 235.928 58.7279C236.61 59.4106 236.952 60.3066 236.952 61.4159C236.952 62.5252 236.61 63.4426 235.928 64.1679C235.288 64.8932 234.37 65.2559 233.176 65.2559Z" fill="white"/>
<path d="M23.5507 38.3435C23.5507 40.0098 22.4242 41.3605 21.0346 41.3605C19.645 41.3605 18.5185 40.0098 18.5185 38.3435C18.5185 36.6772 19.645 35.3264 21.0346 35.3264C22.4242 35.3264 23.5507 36.6772 23.5507 38.3435Z" fill="url(#paint0_linear_303_356)"/>
<path d="M41.4652 38.3435C41.4652 40.0098 40.3387 41.3605 38.9491 41.3605C37.5595 41.3605 36.4331 40.0098 36.4331 38.3435C36.4331 36.6772 37.5595 35.3264 38.9491 35.3264C40.3387 35.3264 41.4652 36.6772 41.4652 38.3435Z" fill="url(#paint1_linear_303_356)"/>
<path d="M28.0284 48.868C26.7142 49.0078 25.0595 49.4398 23.7454 49.9608C21.1169 51.0155 19.2394 52.3243 17.2212 54.5099C15.0856 56.8227 13.7361 59.1609 12.7739 62.2232L12.3632 63.5321L12.903 64.0404C13.6305 64.7265 16.3881 66.8994 16.4467 66.836C16.4702 66.8105 16.5641 66.3404 16.658 65.7939C17.1273 62.8332 18.6293 59.8088 20.671 57.7248C24.3087 54.0145 29.718 52.7437 34.3412 54.5353C37.9907 55.9332 40.971 58.9703 42.4144 62.7442C42.7899 63.7227 43.3413 65.9846 43.3413 66.5437C43.3413 66.747 43.3883 66.8994 43.4352 66.8994C43.576 66.8994 45.4769 65.4636 46.5448 64.5486C47.0728 64.0913 47.4484 63.6846 47.4484 63.5448C47.4484 63.4177 47.2841 62.7951 47.0847 62.1596C45.5708 57.2547 42.2501 53.1121 38.0024 50.8376C34.8576 49.1476 31.49 48.4867 28.0284 48.868Z" fill="url(#paint2_linear_303_356)"/>
<path d="M28.3217 55.0944C26.5851 55.3359 24.473 56.2254 22.9005 57.3817C20.1781 59.3895 18.2303 62.8077 17.7375 66.4547C17.5967 67.5475 17.5967 67.5729 17.8665 67.8016C18.1481 68.0557 22.0191 70.1779 22.4415 70.3176C22.6762 70.3939 22.2904 70.1779 22.2435 68.7801C22.1848 67.1409 22.3608 66.1243 22.9005 64.8409C23.851 62.6044 25.7519 60.8762 27.9814 60.2155C29.1666 59.8596 31.0676 59.9105 32.2526 60.3298C33.25 60.6856 34.2943 61.3083 34.9984 61.9564C36.9814 63.8116 38.0728 67.052 37.5917 69.6949C37.5448 70.0127 37.5095 70.2923 37.5448 70.3176C37.5917 70.3811 41.7925 68.1194 42.0976 67.8651C42.297 67.6873 42.297 67.5983 42.1798 66.5818C41.2879 59.326 35.0454 54.1541 28.3217 55.0944Z" fill="url(#paint3_linear_303_356)"/>
<path d="M35.1326 67.1137C35.1326 69.8828 32.886 72.1277 30.1148 72.1277C27.3436 72.1277 25.0971 69.8828 25.0971 67.1137C25.0971 64.3445 27.3436 62.0996 30.1148 62.0996C32.886 62.0996 35.1326 64.3445 35.1326 67.1137Z" fill="url(#paint4_linear_303_356)"/>
<path fill-rule="evenodd" clip-rule="evenodd" d="M5.55747 16.4173C8.19766 14.8797 12.3868 13.3548 14.7102 13.0626C15.4611 12.9736 15.5901 12.9736 16.3529 13.1007C18.0309 13.393 19.4977 14.6129 20.3307 16.4173C20.9174 17.6753 21.0818 18.5267 21.023 20.1024C20.9996 21.1571 21.0113 21.3604 21.1639 21.3604C21.2578 21.3604 22.1613 21.2714 23.1704 21.1698C28.1692 20.6742 31.9827 20.6742 36.829 21.1698C37.8029 21.2714 38.683 21.3604 38.8003 21.3604C38.988 21.3604 38.9998 21.2587 38.9294 20.2422C38.6477 15.8836 41.6282 12.5543 45.3363 13.1007C47.8239 13.4692 50.8748 14.5366 53.5384 15.9725C55.6623 17.1162 57.0938 18.1455 58.3964 19.4543C59.9687 21.0554 60.2503 21.9322 59.8161 23.9019C59.7223 24.3593 59.3115 26.5577 58.9126 28.7942L58.1851 32.8604L58.1264 43.1532C58.1264 43.1532 58.0911 47.0889 57.2932 49.6304C56.6582 51.6714 55.111 54.5742 53.3856 57.0286C52.3908 55.4916 51.0065 53.3531 50.2639 52.2067C50.314 52.1251 50.3652 52.0413 50.417 51.9558C51.4028 50.3674 52.0716 48.9442 52.5761 47.3811L52.9046 46.3773L52.9399 42.9881C52.9516 37.4604 52.9399 32.9239 52.9165 32.9239C52.8813 32.9239 52.494 33.1781 52.0483 33.4831C48.6687 35.8593 45.5474 36.5962 43.5057 35.5289C41.8277 34.6393 40.5722 32.1869 39.8329 28.3621C39.7038 27.714 39.5747 27.1549 39.5395 27.1167C39.4692 27.0278 38.1902 26.888 35.4795 26.6338C32.769 26.3798 28.6151 26.2908 26.679 26.4433C24.778 26.5958 21.3399 26.9388 20.8001 27.0278L20.3659 27.0913L20.1665 28.1969C19.0987 34.0422 16.9748 36.482 13.4193 35.961C11.7765 35.7195 9.89913 34.8681 7.92777 33.4831L6.95383 32.7969L7.02416 46.1232L7.29405 47.0763C7.69301 48.4867 8.5144 50.2657 9.50007 51.8668C9.56009 51.9651 9.61938 52.0612 9.6773 52.1542C8.95056 53.2759 7.55848 55.4266 6.55044 56.984C4.84561 54.5591 3.3532 51.7199 2.6356 49.4652C1.86113 47.0254 1.80255 42.8991 1.80255 42.8991L1.73214 32.6063L1.0633 28.7942C0.687801 26.6973 0.300575 24.6388 0.194968 24.2195C-0.0866523 23.0377 -0.063184 21.7924 0.265372 21.1062C0.863813 19.8736 3.22238 17.777 5.55747 16.4173ZM14.3815 29.925C15.2851 27.6886 16.2824 19.4035 15.7192 18.7808C15.6573 18.7138 15.6139 18.6636 15.5597 18.6321C15.3979 18.538 15.1396 18.6097 14.006 18.8952C12.2342 19.3272 10.5327 19.988 8.78437 20.9156C7.2472 21.7162 5.60441 22.8726 5.47534 23.2157C5.40493 23.4317 6.14418 24.5372 7.07118 25.6046C8.86651 27.6505 11.7062 29.7217 13.5132 30.3063L14.1351 30.4969L14.3815 29.925ZM53.7613 22.504C52.0247 21.1698 48.6804 19.5941 46.275 18.9714C44.5149 18.514 44.4327 18.514 44.2097 18.8825C44.022 19.1875 44.022 19.3908 44.1511 21.2079C44.421 25.0455 44.949 28.2858 45.5709 29.836L45.8291 30.4841L46.4275 30.3063C47.2842 30.0648 48.7156 29.2515 50.0298 28.2477C51.2972 27.2819 53.9491 24.4863 54.3481 23.6858L54.6179 23.1521L53.7613 22.504Z" fill="url(#paint5_linear_303_356)"/>
<path d="M7.60772 58.3977C9.07579 60.2405 11.2899 62.6477 11.4127 62.5027C11.4714 62.4391 11.6356 61.9818 11.7765 61.4989C12.5158 59.0083 14.182 56.0602 16.0477 53.9635C21.9735 47.2922 30.9501 45.6149 38.589 49.7447C40.4782 50.774 41.9684 51.9431 43.5173 53.6204C45.5826 55.8569 47.1785 58.5762 48.0467 61.3083C48.2462 61.9691 48.4574 62.5535 48.4927 62.6044C48.6014 62.7339 50.9567 60.1468 52.3194 58.4521C51.6121 56.5089 50.0814 54.3417 49.4097 53.3906C49.392 53.3656 49.375 53.3415 49.3585 53.3182C49.2076 53.1384 48.9013 52.7337 48.563 52.2734C46.4626 49.3254 43.4352 46.7458 40.1144 45.0303C33.6842 41.7138 26.1274 41.7265 19.7675 45.043C17.0217 46.4917 15.5079 47.6225 13.3841 49.859C12.6214 50.6596 11.6826 51.7652 11.2836 52.3116C11.1126 52.5458 10.948 52.7614 10.8121 52.9312C10.7757 52.9967 10.6626 53.1569 10.4976 53.3905C9.8321 54.3327 8.32355 56.4687 7.60772 58.3977Z" fill="url(#paint6_linear_303_356)"/>
<defs>
<linearGradient id="paint0_linear_303_356" x1="30" y1="13" x2="30" y2="62.6091" gradientUnits="userSpaceOnUse">
<stop stop-color="#FF005C"/>
<stop offset="1" stop-color="#FF3D00"/>
</linearGradient>
<linearGradient id="paint1_linear_303_356" x1="30" y1="13" x2="30" y2="62.6091" gradientUnits="userSpaceOnUse">
<stop stop-color="#FF005C"/>
<stop offset="1" stop-color="#FF3D00"/>
</linearGradient>
<linearGradient id="paint2_linear_303_356" x1="30" y1="13" x2="30" y2="62.6091" gradientUnits="userSpaceOnUse">
<stop stop-color="#FF005C"/>
<stop offset="1" stop-color="#FF3D00"/>
</linearGradient>
<linearGradient id="paint3_linear_303_356" x1="30" y1="13" x2="30" y2="62.6091" gradientUnits="userSpaceOnUse">
<stop stop-color="#FF005C"/>
<stop offset="1" stop-color="#FF3D00"/>
</linearGradient>
<linearGradient id="paint4_linear_303_356" x1="30" y1="13" x2="30" y2="62.6091" gradientUnits="userSpaceOnUse">
<stop stop-color="#FF005C"/>
<stop offset="1" stop-color="#FF3D00"/>
</linearGradient>
<linearGradient id="paint5_linear_303_356" x1="30" y1="13" x2="30" y2="62.6091" gradientUnits="userSpaceOnUse">
<stop stop-color="#FF005C"/>
<stop offset="1" stop-color="#FF3D00"/>
</linearGradient>
<linearGradient id="paint6_linear_303_356" x1="30" y1="13" x2="30" y2="62.6091" gradientUnits="userSpaceOnUse">
<stop stop-color="#FF005C"/>
<stop offset="1" stop-color="#FF3D00"/>
</linearGradient>
</defs>
</svg>
