<svg width="165" height="204" viewBox="0 0 165 204" fill="none" xmlns="http://www.w3.org/2000/svg">
<path d="M67.6969 57.105C67.6969 60.8596 65.1645 63.9032 62.0405 63.9032C58.9166 63.9032 56.3841 60.8596 56.3841 57.105C56.3841 53.3505 58.9166 50.3068 62.0405 50.3068C65.1645 50.3068 67.6969 53.3505 67.6969 57.105Z" fill="white"/>
<path d="M107.97 57.105C107.97 60.8596 105.438 63.9032 102.314 63.9032C99.19 63.9032 96.6576 60.8596 96.6576 57.105C96.6576 53.3505 99.19 50.3068 102.314 50.3068C105.438 50.3068 107.97 53.3505 107.97 57.105Z" fill="white"/>
<path d="M77.7631 80.8195C74.8087 81.1343 71.0889 82.1079 68.1347 83.2817C62.2257 85.6582 58.0048 88.6072 53.4677 93.5319C48.6666 98.7433 45.6328 104.012 43.4699 110.912L42.5466 113.861L43.7601 115.006C45.3955 116.552 51.5947 121.449 51.7266 121.306C51.7795 121.248 51.9905 120.189 52.2015 118.958C53.2567 112.286 56.6331 105.472 61.2232 100.776C69.4009 92.4156 81.5617 89.5522 91.955 93.5892C100.159 96.7391 106.859 103.582 110.104 112.086C110.948 114.291 112.188 119.387 112.188 120.647C112.188 121.105 112.294 121.449 112.399 121.449C112.716 121.449 116.989 118.213 119.39 116.152C120.577 115.121 121.421 114.205 121.421 113.89C121.421 113.603 121.052 112.2 120.603 110.769C117.2 99.7166 109.735 90.3824 100.186 85.2573C93.1159 81.4494 85.5451 79.9603 77.7631 80.8195Z" fill="white"/>
<path d="M78.4225 94.8489C74.5185 95.393 69.7703 97.3974 66.2352 100.003C60.1151 104.527 55.7362 112.229 54.6284 120.447C54.3118 122.909 54.3118 122.966 54.9184 123.481C55.5514 124.054 64.2537 128.836 65.2034 129.151C65.7309 129.322 64.8638 128.836 64.7582 125.686C64.6262 121.993 65.0219 119.702 66.2352 116.81C68.3721 111.771 72.6455 107.877 77.6576 106.388C80.322 105.586 84.5955 105.701 87.2595 106.646C89.5018 107.447 91.8495 108.85 93.4324 110.311C97.8904 114.491 100.344 121.792 99.2623 127.748C99.1568 128.464 99.0776 129.093 99.1568 129.151C99.2623 129.294 108.706 124.197 109.392 123.625C109.84 123.224 109.84 123.023 109.577 120.733C107.572 104.384 93.538 92.7303 78.4225 94.8489Z" fill="white"/>
<path d="M93.734 121.931C93.734 128.171 88.6836 133.229 82.4537 133.229C76.2237 133.229 71.1733 128.171 71.1733 121.931C71.1733 115.692 76.2237 110.633 82.4537 110.633C88.6836 110.633 93.734 115.692 93.734 121.931Z" fill="white"/>
<path fill-rule="evenodd" clip-rule="evenodd" d="M27.2466 7.69996C33.182 4.23544 42.5995 0.799556 47.8226 0.141009C49.5109 -0.0594176 49.8009 -0.0594122 51.5157 0.226911C55.2879 0.885456 58.5854 3.63416 60.4581 7.69996C61.7772 10.5346 62.1466 12.4529 62.0145 16.0034C61.9619 18.3799 61.9882 18.838 62.3313 18.838C62.5423 18.838 64.5734 18.6376 66.8421 18.4085C78.0798 17.2918 86.6528 17.2918 97.5476 18.4085C99.7371 18.6376 101.716 18.838 101.979 18.838C102.401 18.838 102.428 18.6089 102.269 16.3183C101.636 6.4974 108.337 -1.00428 116.673 0.226911C122.265 1.05725 129.124 3.46239 135.112 6.69784C139.887 9.27475 143.105 11.594 146.033 14.5431C149.568 18.1508 150.201 20.1265 149.225 24.5646C149.014 25.5952 148.09 30.5488 147.194 35.5881L145.558 44.7503L145.426 67.9426C145.426 67.9426 145.347 76.8107 143.553 82.5372C142.125 87.1362 138.647 93.6769 134.768 99.2072C132.532 95.744 129.42 90.9253 127.751 88.3423C127.863 88.1585 127.978 87.9696 128.095 87.7769C130.311 84.1978 131.814 80.991 132.948 77.469L133.687 75.2072L133.766 67.5704C133.793 55.1151 133.766 44.8935 133.714 44.8935C133.635 44.8935 132.764 45.4661 131.762 46.1534C124.164 51.5077 117.148 53.168 112.558 50.7631C108.785 48.7587 105.963 43.2327 104.301 34.6145C104.011 33.1542 103.72 31.8943 103.641 31.8085C103.483 31.608 100.608 31.2929 94.514 30.7203C88.4205 30.1479 79.0821 29.9474 74.7296 30.2911C70.4559 30.6347 62.7268 31.4076 61.5133 31.608L60.5373 31.7512L60.0889 34.2424C57.6884 47.4132 52.9137 52.9107 44.9207 51.7367C41.2276 51.1926 37.007 49.2743 32.5752 46.1534L30.3858 44.6072L30.5439 74.6346L31.1506 76.7822C32.0475 79.9602 33.894 83.9688 36.1099 87.5764C36.2448 87.7979 36.3781 88.0145 36.5083 88.2239C34.8746 90.7515 31.7451 95.5974 29.4789 99.1068C25.6463 93.6428 22.2912 87.2454 20.678 82.165C18.9369 76.6675 18.8052 67.37 18.8052 67.37L18.6469 44.1777L17.1433 35.5881C16.2992 30.8635 15.4286 26.2251 15.1912 25.2804C14.5581 22.6175 14.6109 19.8115 15.3495 18.2653C16.6949 15.488 21.9971 10.7636 27.2466 7.69996ZM47.0838 38.1361C49.1151 33.0969 51.3573 14.4286 50.0911 13.0256C49.952 12.8746 49.8544 12.7616 49.7325 12.6905C49.3688 12.4785 48.788 12.64 46.2397 13.2833C42.2565 14.2568 38.4314 15.7457 34.5009 17.8359C31.0453 19.6397 27.3521 22.2453 27.062 23.0184C26.9037 23.5052 28.5656 25.9961 30.6496 28.4013C34.6856 33.011 41.0695 37.6781 45.1317 38.9953L46.5299 39.4248L47.0838 38.1361ZM135.613 21.4149C131.709 18.4085 124.191 14.8581 118.783 13.4551C114.826 12.4243 114.642 12.4243 114.14 13.2547C113.718 13.9418 113.718 14.4 114.008 18.4944C114.615 27.1414 115.802 34.4426 117.2 37.9357L117.781 39.396L119.126 38.9953C121.052 38.4512 124.27 36.6185 127.224 34.3568C130.073 32.1806 136.035 25.8815 136.932 24.0778L137.539 22.8752L135.613 21.4149Z" fill="white"/>
<path d="M31.8558 102.292C35.1561 106.444 40.1336 111.868 40.4096 111.542C40.5417 111.398 40.9109 110.368 41.2274 109.28C42.8895 103.668 46.6352 97.0252 50.8295 92.3008C64.1514 77.2687 84.3315 73.4893 101.504 82.7948C105.751 85.114 109.102 87.7484 112.584 91.5277C117.227 96.567 120.814 102.694 122.766 108.85C123.215 110.339 123.689 111.656 123.769 111.771C124.013 112.063 129.308 106.233 132.372 102.415C130.781 98.0363 127.34 93.1529 125.83 91.0099C125.79 90.9536 125.752 90.8992 125.715 90.8468C125.376 90.4417 124.687 89.5297 123.927 88.4925C119.205 81.85 112.399 76.0376 104.934 72.1722C90.4779 64.6992 73.4896 64.7278 59.1919 72.2007C53.0192 75.465 49.616 78.013 44.8415 83.0523C43.1269 84.8562 41.0164 87.3474 40.1194 88.5785C39.7349 89.1063 39.365 89.5921 39.0595 89.9748C38.9777 90.1224 38.7233 90.4834 38.3524 91.0097C36.8563 93.1328 33.465 97.9455 31.8558 102.292Z" fill="white"/>
<path d="M14.0888 203.865C13.2345 203.865 12.4926 203.662 11.8632 203.256C11.2337 202.806 10.7391 202.085 10.3794 201.093L0.330479 174.257C0.0157117 173.401 -0.0741812 172.657 0.060704 172.026C0.195589 171.395 0.51036 170.9 1.0049 170.539C1.49945 170.179 2.15142 169.998 2.96073 169.998C3.72505 169.998 4.33204 170.179 4.78169 170.539C5.23134 170.9 5.61344 171.553 5.92821 172.5L15.1004 198.457H13.4818L22.9237 172.364C23.2388 171.553 23.6435 170.967 24.1377 170.607C24.6773 170.201 25.3296 169.998 26.0935 169.998C26.9029 169.998 27.5773 170.201 28.1168 170.607C28.6564 170.967 29.0389 171.553 29.2633 172.364L38.5704 198.457H37.0192L46.3263 172.364C46.6414 171.463 47.0461 170.855 47.5403 170.539C48.0345 170.179 48.6415 169.998 49.3612 169.998C50.1706 169.998 50.7775 170.201 51.1822 170.607C51.5868 171.012 51.8113 171.553 51.8566 172.229C51.9462 172.86 51.8566 173.536 51.5869 174.257L41.5379 201.093C41.2228 202.04 40.7286 202.738 40.0542 203.189C39.4251 203.639 38.6832 203.865 37.8286 203.865C36.9739 203.865 36.2099 203.639 35.5355 203.189C34.9064 202.738 34.4111 202.04 34.0518 201.093L24.4075 174.595H27.5098L17.8656 201.093C17.5059 202.04 17.0112 202.738 16.3818 203.189C15.7524 203.639 14.988 203.865 14.0888 203.865ZM72.7596 204C69.5224 204 66.7119 203.301 64.3293 201.904C61.9467 200.507 60.1025 198.524 58.799 195.956C57.4954 193.387 56.8432 190.368 56.8432 186.898C56.8432 184.284 57.2025 181.941 57.9222 179.868C58.6862 177.75 59.7653 175.947 61.1595 174.46C62.5536 172.973 64.2165 171.846 66.1502 171.08C68.1282 170.269 70.3317 169.863 72.7596 169.863C75.9968 169.863 78.8073 170.562 81.1899 171.959C83.5725 173.356 85.4167 175.339 86.7202 177.907C88.0238 180.431 88.6761 183.428 88.6761 186.898C88.6761 189.512 88.2935 191.877 87.5295 193.995C86.8098 196.113 85.7539 197.916 84.3597 199.403C82.9656 200.89 81.2795 202.04 79.3015 202.851C77.3678 203.617 75.1875 204 72.7596 204ZM72.7596 199.133C74.7376 199.133 76.4468 198.66 77.8852 197.713C79.369 196.767 80.4934 195.393 81.2574 193.59C82.0667 191.787 82.4713 189.557 82.4713 186.898C82.4713 182.932 81.5946 179.913 79.8411 177.84C78.0876 175.767 75.7271 174.73 72.7596 174.73C70.8259 174.73 69.1177 175.203 67.634 176.15C66.1955 177.051 65.0712 178.403 64.2618 180.206C63.4525 182.008 63.0479 184.239 63.0479 186.898C63.0479 190.863 63.9246 193.905 65.6781 196.023C67.477 198.096 69.8374 199.133 72.7596 199.133ZM110.499 204C107.262 204 104.451 203.301 102.069 201.904C99.685 200.507 97.8419 198.524 96.5384 195.956C95.2338 193.387 94.5826 190.368 94.5826 186.898C94.5826 184.284 94.9419 181.941 95.6616 179.868C96.4256 177.75 97.5047 175.947 98.8989 174.46C100.292 172.973 101.956 171.846 103.89 171.08C105.868 170.269 108.071 169.863 110.499 169.863C113.736 169.863 116.546 170.562 118.929 171.959C121.312 173.356 123.155 175.339 124.46 177.907C125.763 180.431 126.415 183.428 126.415 186.898C126.415 189.512 126.033 191.877 125.269 193.995C124.549 196.113 123.492 197.916 122.099 199.403C120.705 200.89 119.019 202.04 117.041 202.851C115.107 203.617 112.927 204 110.499 204ZM110.499 199.133C112.477 199.133 114.185 198.66 115.625 197.713C117.108 196.767 118.232 195.393 118.997 193.59C119.806 191.787 120.211 189.557 120.211 186.898C120.211 182.932 119.334 179.913 117.58 177.84C115.827 175.767 113.466 174.73 110.499 174.73C108.565 174.73 106.857 175.203 105.373 176.15C103.934 177.051 102.811 178.403 102.001 180.206C101.192 182.008 100.787 184.239 100.787 186.898C100.787 190.863 101.664 193.905 103.418 196.023C105.215 198.096 107.576 199.133 110.499 199.133ZM138.938 203.865C137.949 203.865 137.185 203.594 136.646 203.054C136.106 202.513 135.836 201.724 135.836 200.688V175.203H131.79C130.98 175.203 130.35 175.001 129.901 174.595C129.451 174.144 129.227 173.559 129.227 172.838C129.227 172.071 129.451 171.486 129.901 171.08C130.35 170.674 130.98 170.472 131.79 170.472H137.522L135.836 172.094V169.593C135.836 165.222 136.892 161.909 139.006 159.656C141.164 157.358 144.311 156.028 148.448 155.668L150.539 155.533C151.213 155.443 151.753 155.555 152.157 155.871C152.562 156.141 152.832 156.501 152.967 156.952C153.102 157.403 153.102 157.876 152.967 158.372C152.876 158.822 152.674 159.228 152.36 159.588C152.045 159.949 151.64 160.152 151.146 160.197L149.662 160.264C146.964 160.49 145.009 161.301 143.795 162.698C142.581 164.05 141.974 166.078 141.974 168.782V171.486L141.097 170.472H148.852C149.706 170.472 150.359 170.674 150.809 171.08C151.258 171.486 151.483 172.071 151.483 172.838C151.483 173.559 151.258 174.144 150.809 174.595C150.359 175.001 149.706 175.203 148.852 175.203H141.974V200.688C141.974 202.806 140.962 203.865 138.938 203.865ZM161.021 190.886C160.436 190.886 159.942 190.706 159.537 190.345C159.177 189.94 158.974 189.331 158.93 188.52L157.446 159.25C157.356 158.034 157.626 157.065 158.256 156.344C158.885 155.623 159.807 155.262 161.021 155.262C162.19 155.262 163.088 155.623 163.719 156.344C164.348 157.065 164.617 158.034 164.528 159.25L163.043 188.52C162.999 189.331 162.797 189.94 162.437 190.345C162.077 190.706 161.605 190.886 161.021 190.886ZM161.021 203.662C159.851 203.662 158.885 203.279 158.121 202.513C157.356 201.747 156.974 200.778 156.974 199.606C156.974 198.434 157.356 197.488 158.121 196.767C158.885 196.046 159.851 195.685 161.021 195.685C162.279 195.685 163.246 196.046 163.921 196.767C164.64 197.488 165 198.434 165 199.606C165 200.778 164.64 201.747 163.921 202.513C163.246 203.279 162.279 203.662 161.021 203.662Z" fill="white"/>
</svg>
