<svg width="129" height="60" viewBox="0 0 129 60" fill="none" xmlns="http://www.w3.org/2000/svg">
<g clip-path="url(#clip0_342_763)">
<path fill-rule="evenodd" clip-rule="evenodd" d="M21.3213 36.8365C21.2825 37.0849 21.188 37.3214 21.0449 37.5281C20.9018 37.7349 20.7137 37.9066 20.4948 38.0303C20.054 38.315 19.6683 38.4574 19.278 38.5997C18.4468 38.8867 17.5721 39.1737 16.6468 39.5066C15.6711 39.8395 14.7963 40.1724 14.0157 40.4135C13.0422 40.7464 12.117 41.0334 11.2377 41.3663C10.5761 41.6494 9.95466 42.0184 9.38944 42.4638C8.86376 42.94 8.405 43.4853 8.02566 44.0847C7.63535 44.7505 7.38969 45.6092 7.38969 46.6102C7.38969 48.6145 7.87643 50.139 8.85219 51.0918C9.82566 52.0951 11.6303 52.5704 14.305 52.5704C17.0325 52.5704 18.8831 52.0469 19.8611 50.9977C20.8323 49.9484 21.319 48.4722 21.319 46.5666V36.8365H21.3213ZM14.3073 15.714C19.0828 15.714 22.5887 16.6209 24.8272 18.4806C27.068 20.2944 28.1884 22.627 28.1884 25.3913V48.9474C28.1884 49.9002 27.9956 50.9495 27.6558 52.0928C27.3114 53.2408 26.6318 54.2877 25.5596 55.2382C24.5379 56.1956 23.1259 57.0061 21.3236 57.626C19.5213 58.2459 17.1841 58.5788 14.3096 58.5788C11.4397 58.5788 9.09786 58.2459 7.29785 57.626C5.49786 57.0061 4.08357 56.1956 3.06189 55.2382C2.11145 54.3817 1.39144 53.3002 0.968008 52.0928C0.62362 50.9518 0.428467 49.9025 0.428467 48.9497V45.1844C0.428467 43.1801 0.963416 41.3204 2.03561 39.6972C3.1078 38.0303 4.61622 36.887 6.56546 36.1706C7.53893 35.8377 8.65934 35.5048 9.92439 35.0755C11.1917 34.6439 12.3581 34.2145 13.529 33.8357C14.6999 33.4523 15.7216 33.0689 16.5963 32.7337C17.1242 32.5224 17.6604 32.3325 18.2035 32.1643L19.0805 31.7349C19.4249 31.5444 19.7624 31.2574 20.1045 30.8763C20.4443 30.4974 20.7359 30.0681 20.9815 29.5905C21.2411 29.0734 21.3748 28.5023 21.3718 27.9237V26.3969C21.3754 25.8373 21.2579 25.2836 21.0274 24.7737C20.8346 24.1997 20.4443 23.6763 19.9093 23.201C19.3744 22.7234 18.642 22.3423 17.7672 22.053C16.8902 21.7706 15.7239 21.626 14.406 21.626C11.6785 21.626 9.87617 22.1541 8.9027 23.2469C8.07617 24.202 7.58944 25.3936 7.49301 26.7275C7.49301 27.0145 7.24964 27.2051 6.95576 27.2051L1.01622 27.3015C0.875133 27.3021 0.739513 27.247 0.638891 27.1481C0.538268 27.0492 0.480792 26.9145 0.478977 26.7734V25.3959C0.478977 24.0574 0.72464 22.8176 1.25959 21.626C1.79683 20.4321 2.62566 19.4334 3.74377 18.5724C4.86418 17.716 6.32668 17.002 8.07847 16.5245C9.78433 15.9505 11.8782 15.714 14.3119 15.714H14.3073ZM121.986 36.8365C121.947 37.0849 121.853 37.3214 121.709 37.5281C121.566 37.7349 121.378 37.9066 121.159 38.0303C120.723 38.315 120.333 38.4574 119.943 38.5997C119.116 38.8867 118.237 39.1737 117.311 39.5066C116.336 39.8395 115.459 40.1724 114.68 40.4135C113.704 40.7464 112.779 41.0334 111.902 41.3663C111.24 41.6492 110.618 42.0182 110.052 42.4638C109.527 42.9402 109.069 43.4854 108.69 44.0847C108.3 44.7505 108.057 45.6092 108.057 46.6102C108.057 48.6145 108.539 50.139 109.514 51.0918C110.488 52.0951 112.293 52.5704 114.97 52.5704C117.702 52.5704 119.55 52.0469 120.526 50.9977C121.497 49.9484 121.984 48.4722 121.984 46.5666V36.8365H121.986ZM114.974 15.714C119.75 15.714 123.256 16.6209 125.496 18.4806C127.735 20.2944 128.855 22.627 128.855 25.3913V48.9474C128.855 49.9002 128.662 50.9495 128.32 52.0928C127.981 53.2408 127.299 54.2877 126.226 55.2382C125.205 56.1956 123.793 57.0061 121.99 57.626C120.19 58.2459 117.851 58.5788 114.979 58.5788C112.109 58.5788 109.767 58.2459 107.967 57.626C106.167 57.0061 104.753 56.1956 103.731 55.2382C102.782 54.3813 102.064 53.2997 101.642 52.0928C101.297 50.9495 101.102 49.9002 101.102 48.9474V45.1821C101.102 43.1778 101.639 41.3181 102.709 39.6949C103.782 38.028 105.292 36.8847 107.239 36.1683C108.213 35.8354 109.333 35.5025 110.6 35.0732C111.863 34.6416 113.034 34.2122 114.205 33.8334C115.376 33.45 116.395 33.0666 117.272 32.7314C117.8 32.5201 118.336 32.3302 118.879 32.162L119.757 31.7326C120.096 31.5421 120.438 31.2551 120.778 30.874C121.127 30.4865 121.422 30.0541 121.655 29.5882C121.915 29.0711 122.049 28.5 122.046 27.9214V26.3946C122.049 25.835 121.932 25.2813 121.701 24.7714C121.508 24.1974 121.12 23.674 120.583 23.1987C120.048 22.7211 119.32 22.34 118.441 22.0507C117.564 21.7683 116.398 21.6237 115.08 21.6237C112.352 21.6237 110.552 22.1518 109.576 23.2446C108.75 24.1997 108.263 25.3913 108.164 26.7252C108.164 27.0122 107.923 27.2028 107.632 27.2028H101.724C101.585 27.2022 101.451 27.1472 101.352 27.0494C101.252 26.9516 101.195 26.8188 101.192 26.6793V25.2949C101.192 23.9632 101.435 22.7234 101.972 21.5296C102.507 20.3403 103.334 19.337 104.452 18.4806C105.577 17.6219 107.035 16.9056 108.791 16.4303C110.444 15.9482 112.538 15.7117 114.974 15.7117V15.714ZM94.0813 15.9046H97.9797C98.3195 15.9046 98.5629 16.2398 98.4665 16.5704L97.1509 21.5296C97.105 21.7706 96.8593 21.913 96.6642 21.913H93.9366C92.4764 21.913 91.3078 22.1035 90.3826 22.487C89.5032 22.8658 88.7754 23.2951 88.2864 23.8186C87.7996 24.3467 87.5058 24.8678 87.3611 25.3936C87.23 25.9075 87.1645 26.4359 87.166 26.9663V57.626C87.163 57.7667 87.1046 57.9005 87.0037 57.9985C86.9027 58.0965 86.7671 58.1507 86.6264 58.1495H80.7856C80.6457 58.1495 80.5113 58.0947 80.4113 57.9969C80.3113 57.899 80.2537 57.7659 80.2507 57.626V25.5819C80.2507 25.0125 80.3471 24.1538 80.5905 23.0564C80.7856 21.9612 81.3711 20.912 82.2963 19.8145C83.2216 18.7653 84.5854 17.8125 86.4359 17.0502C88.2887 16.2834 90.8211 15.9023 94.0813 15.9023V15.9046ZM74.4053 47.8982V49.3285C74.4053 49.9484 74.3134 50.8071 74.0678 51.9046C73.8726 52.9515 73.2871 54.049 72.3619 55.0959C71.4366 56.1474 70.0729 57.1002 68.2223 57.8625C66.3718 58.627 63.8371 59.0104 60.5769 59.0104C57.3167 59.0104 54.782 58.627 52.9315 57.8625C51.081 57.1002 49.7172 56.1956 48.792 55.0982C47.8667 54.0513 47.2813 52.9538 47.0861 51.8609C46.8933 50.7589 46.7486 49.9507 46.7486 49.3308V17.2408C46.7486 16.9538 46.992 16.7127 47.2836 16.7127H53.0785C53.3723 16.7127 53.6157 16.9538 53.6157 17.2408V47.2783C53.6157 48.2793 53.7604 48.9956 53.9073 49.5673C54.0565 50.1413 54.3481 50.7107 54.7866 51.1882C55.2229 51.7117 55.907 52.141 56.83 52.474C57.707 52.8092 58.9262 53.002 60.4346 53.002C61.9958 53.002 63.2586 52.8092 64.1861 52.474C65.1114 52.141 65.7933 51.7117 66.28 51.2342C66.7621 50.7589 67.1065 50.2354 67.2512 49.6615C67.3981 49.0875 67.5956 48.6145 67.5956 47.2278V17.1949C67.5956 16.9102 67.8366 16.6714 68.1282 16.6714H73.9231C74.2124 16.6714 74.4558 16.9102 74.4558 17.1995V47.9028H74.4098L74.4053 47.8982ZM34.5229 0.602271H40.32C40.6116 0.602271 40.855 0.838751 40.855 1.12344V57.9107C40.8532 58.0514 40.796 58.1857 40.6959 58.2845C40.5958 58.3834 40.4607 58.4388 40.32 58.4388H34.5229C34.3822 58.4388 34.2471 58.3834 34.147 58.2845C34.0469 58.1857 33.9897 58.0514 33.9879 57.9107V1.12344C34.0338 0.838751 34.2313 0.599976 34.5229 0.599976V0.602271Z" fill="#141414"/>
</g>
<defs>
<clipPath id="clip0_342_763">
<rect width="128.571" height="60" fill="white" transform="translate(0.428467)"/>
</clipPath>
</defs>
</svg>
