<svg width="200" height="60" viewBox="0 0 200 60" fill="none" xmlns="http://www.w3.org/2000/svg">
<g clip-path="url(#clip0_344_166)">
<path d="M34.4142 56.7958C43.9715 55.0377 51.8653 53.5829 51.9559 53.5628L52.1208 53.5264L43.0978 42.3503C38.1351 36.2034 34.0748 31.1503 34.0748 31.1212C34.0748 31.066 43.3918 4.34854 43.4442 4.25349C43.4617 4.22171 49.8022 15.6209 58.814 31.8858C67.251 47.1133 74.2069 59.6684 74.2715 59.7861L74.3891 60L45.7132 59.9962L17.0374 59.9923L34.4142 56.7958V56.7958ZM144.383 54.0929C140.018 53.8015 137.479 51.2132 136.806 46.3685C136.627 45.0798 136.627 45.0463 136.608 36.6797L136.591 28.5822H138.522H140.454L140.47 36.4146C140.483 43.4737 140.492 44.3013 140.557 44.7979C140.82 46.8133 141.343 48.1685 142.235 49.1413C142.948 49.9199 143.784 50.3757 144.94 50.6176C145.485 50.7317 147.037 50.732 147.534 50.6181C148.706 50.3495 149.646 49.8183 150.475 48.9556C151.419 47.9723 152.118 46.5772 152.456 44.9997L152.57 44.468L152.583 36.5693L152.596 28.6707H154.568H156.54V41.0876V53.5044H154.588H152.636V51.5344C152.636 50.1958 152.622 49.5692 152.592 49.5796C152.568 49.588 152.468 49.7477 152.37 49.9345C151.697 51.2119 150.576 52.3802 149.348 53.084C147.876 53.9277 146.4 54.2276 144.383 54.093L144.383 54.0929ZM188.688 54.0728C187.147 53.9522 185.525 53.4006 184.199 52.5464C181.404 50.746 179.75 47.7785 179.266 43.6946C179.098 42.2814 179.078 40.3831 179.218 39.1823C179.53 36.4992 180.543 33.8652 181.985 31.9847C182.354 31.5027 183.193 30.6295 183.656 30.2446C184.906 29.2053 186.368 28.4786 187.92 28.1249C188.825 27.9189 190.418 27.8221 191.379 27.9149C193.793 28.1478 196.005 29.3315 197.509 31.1944C199.037 33.0871 199.877 35.7319 199.984 38.9885C200.001 39.4989 200.005 40.3937 199.993 40.977L199.972 42.0375L191.517 42.0487L183.062 42.0598V42.4527C183.062 43.6488 183.341 45.0111 183.824 46.1702C184.24 47.1697 184.957 48.2611 185.543 48.7893C186.746 49.8723 188.219 50.5205 189.83 50.6765C190.427 50.7344 191.95 50.6735 192.631 50.5645C194.573 50.2537 196.42 49.4604 197.911 48.2961C198.086 48.1592 198.254 48.0312 198.284 48.0118C198.327 47.9833 198.338 48.3412 198.337 49.8456L198.335 51.7147L197.936 51.972C196.249 53.0585 194.316 53.7562 192.27 54.0173C191.659 54.0952 189.418 54.13 188.688 54.0728L188.688 54.0728ZM196.047 38.3083C196.047 36.3048 195.236 34.0791 194.088 32.9331C193.27 32.1152 192.28 31.6154 191.103 31.4256C190.546 31.3358 189.373 31.3704 188.786 31.4939C187.545 31.755 186.519 32.323 185.624 33.2441C184.682 34.2135 183.975 35.3909 183.531 36.7324C183.371 37.2148 183.185 38.0067 183.127 38.4472L183.099 38.6571H189.573H196.047V38.3083ZM81.3555 53.4491C81.3654 53.4187 84.2365 45.5644 87.7358 35.9949L94.0981 18.596L96.1423 18.5959L98.1866 18.5957L98.3562 19.0487C98.8745 20.4328 111.093 53.4666 111.093 53.4838C111.093 53.4951 110.114 53.5042 108.918 53.504L106.744 53.5035L104.983 48.6212L103.221 43.7388L96.1308 43.7387L89.0401 43.7386L88.9785 43.9043C88.9446 43.9955 88.1922 46.1924 87.3065 48.7864L85.6961 53.5027L83.5168 53.5035C81.7918 53.5041 81.3413 53.4927 81.3555 53.449V53.4491ZM101.927 40.0129C101.927 40.0052 100.742 36.6596 99.2937 32.5782C96.5839 24.9428 96.4323 24.4834 96.2182 23.2576C96.1178 22.6827 96.067 22.6668 96.0074 23.1913C95.9648 23.5662 95.7801 24.4051 95.6377 24.8704C95.5671 25.1013 94.3468 28.589 92.926 32.6208C91.5052 36.6526 90.3427 39.9684 90.3427 39.9892C90.3427 40.0099 92.9492 40.027 96.135 40.027C99.3207 40.027 101.927 40.0206 101.927 40.0129V40.0129ZM112.409 52.8685V52.2326L119.473 42.1197L126.538 32.0068L120.141 31.9847L113.745 31.9626L113.734 30.2724L113.723 28.5822H122.974H132.225V29.1531V29.724L125.16 39.892C121.274 45.4844 118.095 50.0695 118.095 50.081C118.095 50.0924 121.236 50.1019 125.075 50.1019H132.056V51.8031V53.5043H122.232H112.409V52.8685ZM164.249 53.4749C164.234 53.4587 164.221 47.8512 164.221 41.0138V28.5822H166.152H168.082V31.1451C168.082 32.5547 168.099 33.7081 168.119 33.7081C168.139 33.7081 168.233 33.4773 168.328 33.1953C168.762 31.903 169.515 30.6955 170.485 29.7358C171.358 28.8713 172.357 28.3543 173.535 28.1564C173.866 28.1009 174.146 28.0903 174.808 28.1082C175.64 28.1308 176.074 28.194 176.58 28.3661L176.739 28.4203V30.5072V32.5942L176.283 32.3564C175.477 31.9364 174.682 31.7702 173.726 31.8219C173.104 31.8556 172.696 31.9388 172.198 32.1331C171.175 32.533 170.345 33.2388 169.765 34.2023C168.926 35.5971 168.327 37.3899 168.15 39.0377C168.119 39.3334 168.1 41.7417 168.093 46.4895L168.082 53.5043H166.179C165.133 53.5043 164.265 53.4911 164.249 53.4749V53.4749ZM0 53.3876C0 53.3718 4.2516 45.6864 9.44799 36.3087L18.896 19.2585L29.9065 9.63656C35.9623 4.34448 40.9334 0.00812584 40.9533 0.00021738C40.9732 -0.00768951 40.8936 0.201098 40.7763 0.464193C40.659 0.727287 35.2788 12.7441 28.8204 27.1682L17.0777 53.3939L8.53887 53.405C3.84249 53.4112 0 53.4033 0 53.3876V53.3876Z" fill="#141414"/>
</g>
<defs>
<clipPath id="clip0_344_166">
<rect width="200" height="60" fill="white"/>
</clipPath>
</defs>
</svg>
