<svg width="232" height="62" viewBox="0 0 232 62" fill="none" xmlns="http://www.w3.org/2000/svg">
<path d="M95.3786 53.1282C93.7518 53.1282 92.2696 52.7667 90.932 52.0437C89.6306 51.2845 88.546 50.2904 87.6784 49.0612C87.4976 50.0735 87.2265 50.9592 86.865 51.7183C86.6481 52.1883 86.3589 52.4956 85.9974 52.6402C85.6359 52.7848 85.1117 52.8571 84.4248 52.8571H83.9368C82.1654 52.8571 81.2796 52.3329 81.2796 51.2845V13.4343C81.2796 12.422 82.2376 11.9159 84.1537 11.9159H85.184C87.1 11.9159 88.058 12.422 88.058 13.4343V26.0691C88.8172 25.4907 89.7029 25.0026 90.7151 24.605C91.7635 24.2073 92.9926 24.0085 94.4025 24.0085C97.873 24.0085 100.621 25.3099 102.645 27.9128C104.669 30.4795 105.682 34.0224 105.682 38.5412C105.682 41.5779 105.248 44.1989 104.38 46.4041C103.513 48.5732 102.302 50.2361 100.747 51.393C99.2287 52.5498 97.4392 53.1282 95.3786 53.1282ZM93.5349 47.4887C95.234 47.4887 96.5174 46.7114 97.385 45.1569C98.2526 43.6024 98.6864 41.361 98.6864 38.4328C98.6864 35.5407 98.1984 33.3355 97.2223 31.8171C96.2824 30.2988 94.8363 29.5396 92.8842 29.5396C91.9442 29.5396 91.0585 29.6842 90.2271 29.9734C89.4317 30.2265 88.7087 30.588 88.058 31.058V44.0724C88.781 45.0485 89.5944 45.8619 90.4982 46.5126C91.4381 47.1633 92.4504 47.4887 93.5349 47.4887Z" fill="#fff"/>
<path d="M119.148 53.1282C114.376 53.1282 110.869 51.8629 108.628 49.3324C106.387 46.8018 105.266 43.277 105.266 38.7582C105.266 35.2876 105.79 32.4679 106.839 30.2988C107.923 28.1297 109.442 26.5391 111.394 25.5268C113.346 24.5146 115.641 24.0085 118.28 24.0085C121.028 24.0085 123.233 24.623 124.896 25.8522C126.595 27.0452 127.842 28.7081 128.638 30.841C129.433 32.9378 129.831 35.3419 129.831 38.0532C129.831 38.3063 129.668 38.6678 129.343 39.1377C129.054 39.6077 128.71 40.0234 128.312 40.385C127.915 40.7465 127.607 40.9272 127.391 40.9272H112.424C112.605 43.3493 113.292 45.0846 114.485 46.133C115.678 47.1452 117.304 47.6513 119.365 47.6513C120.666 47.6513 121.787 47.4887 122.727 47.1633C123.703 46.8379 124.498 46.5307 125.113 46.2414C125.764 45.9161 126.198 45.7534 126.415 45.7534C126.74 45.7534 127.101 46.0065 127.499 46.5126C127.897 46.9825 128.222 47.5067 128.475 48.0852C128.764 48.6274 128.909 49.0612 128.909 49.3866C128.909 49.965 128.584 50.4892 127.933 50.9592C127.318 51.393 126.505 51.7906 125.493 52.1522C124.48 52.4775 123.414 52.7125 122.293 52.8571C121.173 53.0379 120.124 53.1282 119.148 53.1282ZM112.424 36.0468H123.052C123.052 34.0224 122.655 32.4317 121.859 31.2749C121.1 30.0819 119.889 29.4854 118.226 29.4854C116.672 29.4854 115.37 29.9915 114.322 31.0037C113.31 32.016 112.677 33.697 112.424 36.0468Z" fill="#fff"/>
<path d="M142.427 53.1282C137.656 53.1282 134.149 51.8629 131.908 49.3324C129.666 46.8018 128.545 43.277 128.545 38.7582C128.545 35.2876 129.07 32.4679 130.118 30.2988C131.203 28.1297 132.721 26.5391 134.673 25.5268C136.625 24.5146 138.921 24.0085 141.56 24.0085C144.307 24.0085 146.513 24.623 148.176 25.8522C149.875 27.0452 151.122 28.7081 151.917 30.841C152.712 32.9378 153.11 35.3419 153.11 38.0532C153.11 38.3063 152.947 38.6678 152.622 39.1377C152.333 39.6077 151.989 40.0234 151.592 40.385C151.194 40.7465 150.887 40.9272 150.67 40.9272H135.703C135.884 43.3493 136.571 45.0846 137.764 46.133C138.957 47.1452 140.584 47.6513 142.644 47.6513C143.946 47.6513 145.067 47.4887 146.006 47.1633C146.983 46.8379 147.778 46.5307 148.392 46.2414C149.043 45.9161 149.477 45.7534 149.694 45.7534C150.019 45.7534 150.381 46.0065 150.778 46.5126C151.176 46.9825 151.501 47.5067 151.754 48.0852C152.044 48.6274 152.188 49.0612 152.188 49.3866C152.188 49.965 151.863 50.4892 151.212 50.9592C150.598 51.393 149.784 51.7906 148.772 52.1522C147.76 52.4775 146.693 52.7125 145.573 52.8571C144.452 53.0379 143.404 53.1282 142.427 53.1282ZM135.703 36.0468H146.332C146.332 34.0224 145.934 32.4317 145.139 31.2749C144.38 30.0819 143.169 29.4854 141.506 29.4854C139.951 29.4854 138.65 29.9915 137.601 31.0037C136.589 32.016 135.956 33.697 135.703 36.0468Z" fill="#fff"/>
<path d="M156.801 52.8571C154.885 52.8571 153.927 52.3329 153.927 51.2845V13.4343C153.927 12.422 154.885 11.9159 156.801 11.9159H157.885C159.802 11.9159 160.76 12.422 160.76 13.4343V27.6959C161.627 26.7198 162.73 25.8703 164.067 25.1472C165.441 24.3881 166.959 24.0085 168.622 24.0085C169.815 24.0085 170.918 24.1712 171.93 24.4965C172.942 24.7857 173.828 25.2738 174.587 25.9606C175.346 26.6475 175.925 27.5513 176.323 28.672C176.756 29.7927 176.973 31.1664 176.973 32.7932V51.2845C176.973 52.3329 176.015 52.8571 174.099 52.8571H173.015C171.099 52.8571 170.141 52.3329 170.141 51.2845V33.7151C170.141 32.4859 169.797 31.5098 169.11 30.7868C168.424 30.0638 167.375 29.7023 165.965 29.7023C165.242 29.7023 164.573 29.8288 163.959 30.0819C163.38 30.3349 162.874 30.6603 162.441 31.058C162.007 31.4556 161.645 31.8352 161.356 32.1967C161.067 32.5582 160.868 32.8474 160.76 33.0643V51.2845C160.76 52.3329 159.802 52.8571 157.885 52.8571H156.801Z" fill="#fff"/>
<path d="M181.769 52.8571C179.853 52.8571 178.895 52.3329 178.895 51.2845V25.8522C178.895 24.8038 179.853 24.2796 181.769 24.2796H182.853C184.769 24.2796 185.727 24.8038 185.727 25.8522V51.2845C185.727 52.3329 184.769 52.8571 182.853 52.8571H181.769ZM182.311 21.2429C181.082 21.2429 180.196 21.1164 179.654 20.8633C179.111 20.5741 178.84 20.1765 178.84 19.6703V15.766C178.84 15.2599 179.111 14.8803 179.654 14.6273C180.196 14.3742 181.082 14.2477 182.311 14.2477C183.54 14.2477 184.426 14.3742 184.968 14.6273C185.51 14.8803 185.781 15.2599 185.781 15.766V19.6703C185.781 20.1765 185.51 20.5741 184.968 20.8633C184.426 21.1164 183.54 21.2429 182.311 21.2429Z" fill="#fff"/>
<path d="M196.282 52.8571C195.595 52.8571 194.999 52.7848 194.493 52.6402C194.023 52.4956 193.716 52.2245 193.571 51.8268L184.895 26.286C184.858 26.1414 184.804 25.9968 184.732 25.8522C184.696 25.6714 184.678 25.5088 184.678 25.3642C184.678 24.6411 185.672 24.2796 187.66 24.2796H188.962C189.649 24.2796 190.227 24.3519 190.697 24.4965C191.203 24.6411 191.528 24.9123 191.673 25.3099L195.36 36.9144C195.794 38.2882 196.174 39.6981 196.499 41.1441C196.861 42.554 197.132 43.8012 197.313 44.8858H197.529C197.674 43.8012 197.909 42.554 198.234 41.1441C198.56 39.7342 198.994 38.2159 199.536 36.5891L203.115 25.3099C203.259 24.9123 203.567 24.6411 204.037 24.4965C204.543 24.3519 205.157 24.2796 205.88 24.2796H206.802C208.718 24.2796 209.676 24.6411 209.676 25.3642C209.676 25.6172 209.622 25.9245 209.514 26.286L200.837 51.8268C200.693 52.2245 200.367 52.4956 199.861 52.6402C199.391 52.7848 198.795 52.8571 198.072 52.8571H196.282Z" fill="#fff"/>
<path d="M220.77 53.1282C215.998 53.1282 212.492 51.8629 210.25 49.3324C208.009 46.8018 206.888 43.277 206.888 38.7582C206.888 35.2876 207.412 32.4679 208.461 30.2988C209.545 28.1297 211.064 26.5391 213.016 25.5268C214.968 24.5146 217.264 24.0085 219.903 24.0085C222.65 24.0085 224.855 24.623 226.518 25.8522C228.217 27.0452 229.465 28.7081 230.26 30.841C231.055 32.9378 231.453 35.3419 231.453 38.0532C231.453 38.3063 231.29 38.6678 230.965 39.1377C230.676 39.6077 230.332 40.0234 229.935 40.385C229.537 40.7465 229.23 40.9272 229.013 40.9272H214.046C214.227 43.3493 214.914 45.0846 216.107 46.133C217.3 47.1452 218.927 47.6513 220.987 47.6513C222.289 47.6513 223.409 47.4887 224.349 47.1633C225.325 46.8379 226.121 46.5307 226.735 46.2414C227.386 45.9161 227.82 45.7534 228.037 45.7534C228.362 45.7534 228.724 46.0065 229.121 46.5126C229.519 46.9825 229.844 47.5067 230.097 48.0852C230.387 48.6274 230.531 49.0612 230.531 49.3866C230.531 49.965 230.206 50.4892 229.555 50.9592C228.94 51.393 228.127 51.7906 227.115 52.1522C226.103 52.4775 225.036 52.7125 223.915 52.8571C222.795 53.0379 221.746 53.1282 220.77 53.1282ZM214.046 36.0468H224.675C224.675 34.0224 224.277 32.4317 223.482 31.2749C222.722 30.0819 221.511 29.4854 219.848 29.4854C218.294 29.4854 216.993 29.9915 215.944 31.0037C214.932 32.016 214.299 33.697 214.046 36.0468Z" fill="#fff"/>
<path fill-rule="evenodd" clip-rule="evenodd" d="M38.6965 24.135C38.6965 24.135 38.4995 24.3506 38.0059 24.5661C37.6119 24.3506 37.4128 24.135 37.4128 24.135C27.5285 15.7001 22.1857 16.2969 10.2254 20.4066C11.6109 26.5699 15.7607 30.6122 21.1942 32.7748C26.7295 34.8285 30.601 34.5713 35.2487 30.6796C30.9971 33.0601 28.3097 33.6002 23.7637 31.8687C19.3174 30.2461 15.6611 26.6765 13.5829 22.0291C24.6513 20.0821 28.2169 19.7009 37.4106 26.8377C33.1612 29.4314 30.4921 34.1925 30.2951 39.3823C29.9985 44.681 32.2693 49.6553 36.1248 52.7914C36.4213 54.0895 37.5102 57.4412 38.0038 58.7392C38.5969 57.4412 39.6814 54.0895 39.8806 52.7914C43.8378 49.6553 46.009 44.681 45.812 39.3823C45.5154 34.1925 42.8463 29.4338 38.6965 26.8377C47.7906 19.7009 51.6122 20.0819 62.581 22.029C60.6024 26.6787 56.9461 30.2483 52.4002 31.8685C47.9538 33.6 45.0082 33.0576 40.8584 30.6794C45.5018 34.5736 49.534 34.8283 54.9697 32.7747C60.5028 30.6121 64.6526 26.5698 66.0381 20.4064C54.08 16.2991 48.5807 15.7025 38.6965 24.135ZM38.0059 51.8179C31.187 45.6546 30.4942 37.6531 37.4128 28.7848C37.6098 28.6758 37.9063 28.3537 38.0059 28.0292C38.2029 28.3537 38.3999 28.6782 38.6965 28.7848C45.5176 37.6531 44.9245 45.6546 38.0059 51.8179Z" fill="#fff"/>
<path fill-rule="evenodd" clip-rule="evenodd" d="M38.0546 22.0177C33.2722 18.0511 29.2469 15.9713 24.7923 15.5424C20.2337 15.1036 15.5192 16.4373 9.5644 18.4834C8.58388 18.8203 8.01383 19.841 8.24122 20.8525C9.79844 27.7801 14.4965 32.2978 20.442 34.6642C20.4568 34.67 20.4717 34.6758 20.4867 34.6813C23.3635 35.7487 26.0346 36.3104 28.6959 35.9884C28.4534 37.063 28.3072 38.1673 28.2636 39.2869C27.9503 44.9833 30.2785 50.3636 34.3143 53.9225C34.7603 55.5627 35.6608 58.2995 36.1028 59.4619C36.3943 60.2284 37.1176 60.7449 37.9372 60.7716C38.7568 60.7984 39.5123 60.3302 39.8531 59.5843C40.2019 58.821 40.651 57.5643 41.0274 56.3823C41.2928 55.5486 41.5565 54.6453 41.731 53.8977C45.8564 50.3167 48.0533 44.9396 47.8439 39.3067C47.8434 39.2932 47.8428 39.2797 47.842 39.2663C47.7782 38.1494 47.6158 37.0475 47.3611 35.9748C50.0833 36.3262 52.8044 35.7665 55.6882 34.6769L55.7098 34.6686C61.7596 32.3041 66.4635 27.785 68.0219 20.8524C68.2493 19.8408 67.6791 18.82 66.6984 18.4832C60.7389 16.4363 55.9902 15.1059 51.3963 15.544C46.9089 15.9719 42.8467 18.047 38.0546 22.0177ZM37.2109 22.7462L37.2032 22.7546L37.1992 22.7588L37.1972 22.761L37.1962 22.7621C37.1961 22.7622 37.1959 22.7624 37.2329 22.7964M37.2109 22.7462C37.2062 22.7513 37.2019 22.7559 37.1972 22.761L37.2109 22.7462ZM38.0059 24.5661C37.6119 24.3506 37.4128 24.135 37.4128 24.135C27.5285 15.7001 22.1857 16.2969 10.2254 20.4066C11.4631 25.9124 14.9065 29.7256 19.5007 32.0182C20.0493 32.292 20.6145 32.5441 21.1942 32.7748C21.8767 33.028 22.5337 33.2461 23.1702 33.4266C23.1777 33.4287 23.1852 33.4308 23.1927 33.4329C25.4269 34.0638 27.4061 34.2302 29.3285 33.8244C30.1989 33.6407 31.0578 33.3397 31.9234 32.9114C31.656 33.4536 31.4193 34.0134 31.2146 34.5876C31.1069 34.89 31.008 35.1964 30.9183 35.5063C30.5582 36.7506 30.3456 38.0524 30.2951 39.3823C30.0086 44.5015 32.1182 49.3178 35.7381 52.4663C35.8651 52.5767 35.9941 52.6852 36.1248 52.7914C36.1299 52.8138 36.135 52.8368 36.1406 52.8603C36.2939 53.5087 36.62 54.6028 36.9709 55.7049C37.3474 56.8873 37.7527 58.0789 38.0038 58.7392C38.3053 58.0794 38.7335 56.8889 39.1081 55.7073C39.4562 54.6096 39.7577 53.5195 39.8678 52.8695C39.8723 52.8427 39.8767 52.8167 39.8806 52.7914C40.0353 52.6688 40.1872 52.5433 40.3364 52.4151C44.0038 49.2657 46.0013 44.4738 45.812 39.3823C45.7353 38.0404 45.4998 36.7272 45.1213 35.4729C45.0292 35.1677 44.9286 34.866 44.8198 34.5682C44.6046 33.9792 44.357 33.4054 44.0789 32.8503C44.9535 33.2901 45.823 33.6024 46.7025 33.7973C48.6808 34.2357 50.7097 34.0797 52.9611 33.443C52.9767 33.4386 52.9923 33.4342 53.0079 33.4297C53.6428 33.2486 54.2955 33.0294 54.9697 32.7747C55.6083 32.5251 56.2282 32.2505 56.8278 31.9504C61.4236 29.6508 64.8125 25.8585 66.0381 20.4064C54.08 16.2991 48.5807 15.7025 38.6965 24.135C38.6965 24.135 38.4995 24.3506 38.0059 24.5661ZM35.6794 25.5353C28.2753 20.1606 24.4786 20.1763 15.6574 21.6696C14.9954 21.7817 14.3052 21.9021 13.5829 22.0291C13.8753 22.6828 14.1986 23.3152 14.5512 23.9239C16.0614 26.5309 18.1043 28.7024 20.5075 30.248C20.9415 30.5272 21.3873 30.7859 21.8439 31.0231C21.8569 31.0299 21.87 31.0367 21.8831 31.0434C22.4917 31.3576 23.1195 31.6336 23.7637 31.8687C26.0874 32.7537 27.9252 33.0452 29.7348 32.8009C30.5996 32.6841 31.4579 32.445 32.3596 32.0897C32.2062 32.3587 32.0608 32.6327 31.9234 32.9114C32.1486 32.7999 32.3743 32.6799 32.6008 32.551C33.4659 32.0588 34.3427 31.4382 35.2487 30.6796C34.4415 31.1316 33.6904 31.5172 32.9725 31.8335C32.7657 31.9247 32.5615 32.0101 32.3596 32.0897C32.8944 31.1513 33.5249 30.2746 34.2418 29.4773C34.3101 29.4014 34.3792 29.3261 34.449 29.2517C34.5667 29.1261 34.6866 29.0027 34.8087 28.8815C34.885 28.8056 34.9623 28.7306 35.0404 28.6564C35.2501 28.4571 35.466 28.2641 35.6877 28.0777C35.8195 27.9669 35.9533 27.8584 36.0892 27.7523C36.1855 27.6772 36.2828 27.6033 36.3811 27.5306C36.4608 27.4716 36.5413 27.4134 36.6224 27.3561C36.6528 27.3345 36.6834 27.3131 36.7141 27.2917C36.9412 27.1339 37.1735 26.9824 37.4106 26.8377C37.2097 26.6817 37.0112 26.5293 36.8154 26.3804C36.7872 26.3589 36.759 26.3375 36.7308 26.3161C36.372 26.044 36.0218 25.7839 35.6794 25.5353ZM37.6575 28.5866C37.8023 28.4368 37.9432 28.2334 38.0059 28.0292C38.1346 28.2411 38.2631 28.4531 38.4195 28.6043C38.5026 28.6846 38.5936 28.7478 38.6965 28.7848C38.875 29.0169 39.0482 29.2484 39.2166 29.4792C39.2709 29.5537 39.3247 29.6281 39.378 29.7025C39.5274 29.9111 39.6727 30.1191 39.8138 30.3267C40.0182 30.6271 40.2138 30.9265 40.4009 31.2247C40.4262 31.265 40.4514 31.3053 40.4764 31.3456C40.9011 32.0305 41.2805 32.7094 41.615 33.3819C41.7089 33.5706 41.7993 33.7589 41.8861 33.9466C44.8459 40.3451 43.7138 46.1415 38.9565 50.9195C38.8533 51.0231 38.7485 51.1261 38.642 51.2288C38.4997 51.3657 38.3545 51.5019 38.2063 51.6371C38.14 51.6975 38.0734 51.7578 38.0059 51.8179C37.9304 51.7496 37.8554 51.6811 37.7814 51.6124C37.6478 51.4884 37.5167 51.3636 37.388 51.2382C37.2992 51.1516 37.2116 51.0647 37.1252 50.9774C32.3908 46.1978 31.1914 40.3938 34.1675 33.9842C34.2593 33.7865 34.355 33.5882 34.4548 33.3893C34.7951 32.7111 35.1818 32.0263 35.6157 31.3354C35.6416 31.2941 35.6677 31.2529 35.694 31.2116C35.9064 30.8773 36.1299 30.5415 36.3645 30.2045C36.4746 30.0464 36.587 29.888 36.702 29.7294C36.7631 29.645 36.825 29.5604 36.8875 29.4759C37.0574 29.2461 37.2326 29.0157 37.4128 28.7848C37.4858 28.7444 37.5722 28.6747 37.6575 28.5866ZM38.0475 31.346C35.4912 35.0108 34.4689 38.3235 34.5894 41.2315C34.7016 43.9399 35.8151 46.5362 38.0157 48.9624C40.2459 46.5364 41.3596 43.9404 41.4716 41.2317C41.5919 38.3236 40.5692 35.0111 38.0475 31.346ZM40.8584 30.6794C41.7414 31.42 42.6021 32.0289 43.4548 32.5154C43.6633 32.6343 43.8712 32.7459 44.0789 32.8503C43.9447 32.5826 43.8035 32.3192 43.6553 32.0605C44.5547 32.4171 45.4216 32.6609 46.2939 32.7857C48.1769 33.0551 50.0852 32.77 52.4002 31.8685C53.0516 31.6364 53.6846 31.3641 54.2972 31.0544C54.3035 31.0513 54.3097 31.0481 54.316 31.0449C54.8319 30.7833 55.3332 30.495 55.8185 30.1817C58.203 28.6421 60.2004 26.4972 61.6461 23.9287C61.9895 23.3186 62.302 22.6845 62.581 22.029C61.8636 21.9017 61.1767 21.781 60.517 21.6687C51.7479 20.1763 47.7665 20.1615 40.413 25.5347C40.0743 25.7822 39.7285 26.0411 39.3748 26.3118C39.3304 26.3457 39.286 26.3798 39.2414 26.4141C39.0618 26.5522 38.8803 26.6935 38.6965 26.8377C38.8882 26.9576 39.0765 27.0822 39.2619 27.2112C39.276 27.221 39.2902 27.2309 39.3043 27.2408C39.3331 27.261 39.3617 27.2813 39.3903 27.3017C39.6022 27.4527 39.8097 27.6097 40.0128 27.7722C40.1427 27.8761 40.2707 27.9824 40.3969 28.0909C40.6073 28.2717 40.8124 28.4586 41.0122 28.6515C41.1405 28.7753 41.2667 28.9016 41.3905 29.0301C41.4771 29.12 41.5625 29.211 41.6469 29.3031C41.7106 29.3726 41.7736 29.4428 41.8359 29.5135C42.523 30.2929 43.1322 31.1474 43.6553 32.0605C43.4721 31.9879 43.2876 31.9106 43.1014 31.8286C42.3845 31.5132 41.6431 31.1292 40.8584 30.6794ZM45.0281 30.398C45.6326 30.5993 46.2017 30.7293 46.7592 30.796C48.1521 30.9624 49.6575 30.7542 51.662 29.9736C51.6717 29.9699 51.6813 29.9662 51.691 29.9626C51.6997 29.9593 51.7085 29.9562 51.7173 29.953C54.9098 28.8152 57.6346 26.5643 59.5016 23.5609C55.5033 22.8999 52.7837 22.631 50.2564 23.0349C47.7912 23.4289 45.3674 24.4955 42.0645 26.8506C43.2068 27.8887 44.2008 29.0854 45.0281 30.398ZM34.01 26.8406C30.6892 24.488 28.3021 23.4266 25.8751 23.0344C23.3879 22.6324 20.7114 22.8985 16.7071 23.5567C18.63 26.5723 21.3488 28.8228 24.4606 29.9584L24.4874 29.9683C26.5639 30.7592 28.0284 30.9613 29.3702 30.7976C29.8886 30.7343 30.4185 30.6131 30.9867 30.4255C31.8232 29.0972 32.8375 27.8876 34.01 26.8406Z" fill="#fff"/>
<path fill-rule="evenodd" clip-rule="evenodd" d="M34.9318 9.7847C33.0312 10.6714 32.2192 12.9564 33.0312 14.8605C34.6582 15.7473 36.4279 16.7647 38.0549 18.0323C39.8187 16.7647 41.4516 15.7473 43.0785 14.8605C44.0274 12.9564 43.2154 10.6714 41.1779 9.7847C43.0785 6.10429 45.925 3.05767 49.4585 0.772705C45.5205 2.29602 42.1267 4.96181 40.2232 8.63944C39.545 7.75269 39.2744 7.37186 38.0519 7.244C36.8324 7.37186 36.6956 7.74991 36.0175 8.63944C33.9771 4.96181 30.7232 2.29602 26.6483 0.772705C30.3157 3.05767 33.171 6.10151 34.9318 9.7847Z" fill="#fff"/>
</svg>
