<svg width="222" height="60" viewBox="0 0 222 60" fill="none" xmlns="http://www.w3.org/2000/svg">
<g clip-path="url(#clip0_342_749)">
<g clip-path="url(#clip1_342_749)">
<path d="M63.1396 0.834717H67.5165V59.6149H63.1396V0.834717Z" fill="#141414"/>
<path d="M16.7312 28.9652H38.0979V32.9958H16.7312V28.9652Z" fill="#141414"/>
<path d="M0.385742 0.834717V59.6153H4.76259V32.9958H4.76838V28.9648H4.76298V4.86495H50.1496V0.834717" fill="#141414"/>
<path d="M199.156 0.607788H164.278V59.3884H168.655V37.4712H168.687V33.4417H168.655V4.63918H198.82C209.427 4.63918 216.666 9.50916 216.666 18.8298V18.9983C216.666 27.7304 209.258 33.4413 198.315 33.4413H184.51V37.4712H198.062C210.352 37.4712 221.043 31.0894 221.043 18.746V18.5782C221.043 7.24189 212.12 0.608173 199.156 0.608173" fill="#141414"/>
<path d="M138.813 33.4417L118.379 0.384644H114.17L77.7715 59.5849H82.3172L116.191 5.17153L133.847 33.4413" fill="#141414"/>
<path d="M145.536 44.3184H140.64L150.175 59.5846H154.972" fill="#141414"/>
</g>
</g>
<defs>
<clipPath id="clip0_342_749">
<rect width="221.429" height="60" fill="white"/>
</clipPath>
<clipPath id="clip1_342_749">
<rect width="221.429" height="60" fill="white"/>
</clipPath>
</defs>
</svg>
