<svg width="204" height="60" viewBox="0 0 204 60" fill="none" xmlns="http://www.w3.org/2000/svg">
<g clip-path="url(#clip0_343_78)">
<path fill-rule="evenodd" clip-rule="evenodd" d="M23.6187 8.73741C18.9728 6.6739 16.2006 5.87409 13.4493 5.87409C10.5616 5.87409 8.71232 6.90758 8.71232 8.50651C8.71232 13.3297 25.0744 11.9714 25.0744 23.1284C25.0744 29.2793 19.9125 32.8534 12.742 32.8534C7.11549 32.8534 4.34744 31.3978 1.15654 29.7502V22.8502C5.75858 25.8993 8.57392 26.9766 12.123 26.9766C15.2019 26.9766 16.862 25.8993 16.862 24.0221C16.862 18.7698 0.5 20.6928 0.5 9.20617C0.5 3.66661 5.28774 0 12.742 0C16.339 0 19.5849 0.753907 23.6187 2.48915V8.73741Z" fill="#fff"/>
<path fill-rule="evenodd" clip-rule="evenodd" d="M46.5267 31.3867C43.8004 32.3763 41.4942 32.8486 39.1928 32.8486C31.5724 32.8486 26.6462 28.41 26.6462 21.6575C26.6462 15.0295 31.7629 10.3461 38.9098 10.3461C41.1172 10.3461 43.9388 10.9122 46.1957 11.7523V16.8266C44.4097 15.8773 42.3406 15.3571 40.6478 15.3571C36.5583 15.3571 33.9259 17.8156 33.9259 21.6067C33.9259 25.4548 36.5138 27.9871 40.4113 27.9871C42.0555 27.9871 43.5174 27.6081 46.5267 26.4821V31.3867Z" fill="#fff"/>
<path fill-rule="evenodd" clip-rule="evenodd" d="M105.937 19.1711C106.217 16.1589 107.965 14.4174 110.643 14.4174C113.278 14.4174 115.063 16.2083 115.345 19.1711H105.937ZM110.174 10.3523C103.487 10.3523 98.7273 15.076 98.7273 21.7207C98.7273 28.4148 103.678 32.8485 111.306 32.8485C112.995 32.8485 117.083 32.8485 120.977 29.9657V25.7302C117.786 28.001 115.677 28.7841 112.954 28.7841C108.657 28.7841 106.029 26.5592 105.792 22.7654H121.359C121.683 14.8417 116.482 10.3523 110.174 10.3523Z" fill="#fff"/>
<path fill-rule="evenodd" clip-rule="evenodd" d="M123.994 32.4535H130.802V10.7529H123.994V32.4535Z" fill="#fff"/>
<path fill-rule="evenodd" clip-rule="evenodd" d="M149.745 26.5217C148.327 27.7972 147.149 28.3091 145.693 28.3091C142.489 28.3091 140.461 25.6725 140.461 21.7186C140.461 17.3858 142.489 14.889 145.919 14.889C147.149 14.889 148.752 15.4537 149.745 16.1624V26.5217ZM149.745 0.39917V11.7057C147.906 10.8148 146.074 10.3474 144.09 10.3474C137.882 10.3474 133.586 14.9349 133.586 21.5768C133.586 28.074 137.882 32.8541 143.707 32.8541C146.017 32.8541 147.803 32.2476 149.745 30.6988V32.4465H156.551V0.39917H149.745Z" fill="#fff"/>
<path fill-rule="evenodd" clip-rule="evenodd" d="M166.627 19.1711C166.91 16.1589 168.649 14.4174 171.326 14.4174C173.963 14.4174 175.764 16.2083 176.047 19.1711H166.627ZM170.86 10.3523C164.175 10.3523 159.422 15.076 159.422 21.7207C159.422 28.4148 164.373 32.8485 171.993 32.8485C173.681 32.8485 177.775 32.8485 181.678 29.9657V25.7302C178.486 28.001 176.372 28.7841 173.637 28.7841C169.361 28.7841 166.722 26.5592 166.486 22.7654H182.047C182.371 14.8417 177.164 10.3523 170.86 10.3523Z" fill="#fff"/>
<path fill-rule="evenodd" clip-rule="evenodd" d="M192.238 16.9664H192.338C194.358 12.4499 196.62 10.3329 199.246 10.3329C200.606 10.3329 201.78 10.851 203.754 12.3129L201.882 18.3282C200.092 17.2008 198.918 16.73 197.838 16.73C195.342 16.73 193.743 19.0835 192.238 23.0624V32.4244H185.421V10.7314H192.238V16.9664Z" fill="#fff"/>
<path fill-rule="evenodd" clip-rule="evenodd" d="M131.12 1.6254C131.759 3.31126 130.609 5.66201 128.558 6.87147C126.499 8.08092 124.324 7.6977 123.688 6.01115C123.044 4.32181 124.188 1.96828 126.246 0.765084C128.298 -0.450628 130.475 -0.0639374 131.12 1.6254Z" fill="#fff"/>
<path fill-rule="evenodd" clip-rule="evenodd" d="M71.0453 18.6419C71.0453 12.7622 67.0497 10.3524 63.1049 10.3524C60.4231 10.3524 58.2184 11.4853 56.246 13.9821H56.1521V0.39856H49.3398V32.3903H56.1521V18.6419C57.7462 16.3357 59.1094 15.3495 60.7048 15.3495C62.8233 15.3495 64.2323 16.8559 64.2323 20.0975V27.7208C66.517 26.5468 68.8406 25.8256 71.0453 25.5578V18.6419Z" fill="#fff"/>
<path fill-rule="evenodd" clip-rule="evenodd" d="M88.137 10.3468C85.3613 10.3468 83.2428 11.3775 81.0736 13.8576V10.753H74.2627V25.4994C76.6225 25.7352 79.6332 26.8166 81.0736 28.6047V18.4715C82.8645 15.7841 84.1351 14.8883 85.8293 14.8883C87.7586 14.8883 89.2247 16.1625 89.2247 19.2212V32.3965H96.037V18.6593C96.037 12.2684 91.5233 10.3468 88.137 10.3468Z" fill="#fff"/>
<path fill-rule="evenodd" clip-rule="evenodd" d="M99.8003 38.6281H91.8842V44.2525H99.5214V46.6666H91.8842V52.4683H100.037V54.8789H89.2302V36.2203H99.8003V38.6281Z" fill="#fff"/>
<path fill-rule="evenodd" clip-rule="evenodd" d="M106.266 54.8893H108.69V36.2134H106.266V54.8893Z" fill="#fff"/>
<path fill-rule="evenodd" clip-rule="evenodd" d="M120.694 44.4298C122.414 44.4298 123.479 45.6143 123.559 47.4747H117.384C117.718 45.5315 118.837 44.4298 120.694 44.4298ZM117.338 49.0931H125.978C125.978 44.5404 123.898 42.3434 120.639 42.3434C117.258 42.3434 114.913 44.8423 114.913 48.568C114.913 51.9745 117.032 55.1209 120.85 55.1209C122.929 55.1209 124.276 54.6577 125.765 53.6687V51.3082C124.325 52.2513 122.929 52.7945 121.461 52.7945C119.113 52.7945 117.718 51.5343 117.338 49.0931Z" fill="#fff"/>
<path fill-rule="evenodd" clip-rule="evenodd" d="M141.811 45.8083C140.416 44.8527 139.486 44.5731 138.424 44.5731C136.204 44.5731 134.667 46.2757 134.667 48.7697C134.667 51.3082 136.302 52.839 138.83 52.839C139.868 52.839 140.859 52.5698 142.083 52.0225V54.4129C141.265 54.7996 139.708 55.1195 138.424 55.1195C134.753 55.1195 132.203 52.5949 132.203 48.9853C132.203 44.9146 134.531 42.3434 138.257 42.3434C139.68 42.3434 140.637 42.6744 141.811 43.1898V45.8083Z" fill="#fff"/>
<path fill-rule="evenodd" clip-rule="evenodd" d="M152.858 42.5777H156.749V44.7622H152.858V51.0779C152.858 52.5239 153.904 52.9412 154.612 52.9412C155.489 52.9412 156.394 52.6331 157.377 52.0273V54.3022C156.524 54.7703 155.218 55.1194 154.416 55.1194C151.777 55.1194 150.443 53.4809 150.443 51.2609V44.7622H148.302V44.4917L152.858 40.0343V42.5777Z" fill="#fff"/>
<path fill-rule="evenodd" clip-rule="evenodd" d="M166.022 42.5777V45.425H166.071C167.308 43.2454 168.484 42.3419 169.629 42.3419C170.614 42.3419 171.54 42.8051 172.556 43.767L171.271 45.9035C170.533 45.1746 169.578 44.6697 169.001 44.6697C167.333 44.6697 166.022 46.3667 166.022 48.4699V54.8906H163.6V42.5777H166.022Z" fill="#fff"/>
<path fill-rule="evenodd" clip-rule="evenodd" d="M197.402 45.8083C196 44.8527 195.071 44.5731 194.001 44.5731C191.788 44.5731 190.263 46.2757 190.263 48.7697C190.263 51.3082 191.902 52.839 194.413 52.839C195.454 52.839 196.437 52.5698 197.677 52.0225V54.4129C196.843 54.7996 195.283 55.1195 194.001 55.1195C190.337 55.1195 187.777 52.5949 187.777 48.9853C187.777 44.9146 190.115 42.3434 193.841 42.3434C195.268 42.3434 196.214 42.6744 197.402 43.1898V45.8083Z" fill="#fff"/>
<path fill-rule="evenodd" clip-rule="evenodd" d="M178.981 54.8892H181.407V42.577H178.981V54.8892Z" fill="#fff"/>
<path fill-rule="evenodd" clip-rule="evenodd" d="M181.489 38.1545C181.726 38.7498 181.312 39.5879 180.584 40.0177C179.849 40.4468 179.072 40.3084 178.85 39.7131C178.629 39.1129 179.03 38.279 179.767 37.8498C180.495 37.4159 181.267 37.5543 181.489 38.1545Z" fill="#fff"/>
<path fill-rule="evenodd" clip-rule="evenodd" d="M72.9601 39.1497C72.5324 39.1497 72.3523 39.2193 72.177 39.4147C72.1095 39.4919 72.0817 39.5684 72.0567 39.7221L69.8833 47.9692C69.3721 50.8597 65.8196 53.7487 61.189 53.7487H54.7516L55.8685 49.5104H60.0046C60.4274 49.5104 60.7564 49.3553 61.0332 49.0472C61.1334 48.9276 61.2676 48.7398 61.2843 48.5472L63.0014 41.3426C63.5078 38.4487 66.5644 35.2529 71.1936 35.2529H77.7847L76.9418 39.1497H72.9601ZM74.4464 44.1746L75.1815 41.5074H81.8791C82.7053 37.6391 82.0543 34.0546 79.7064 31.7066C74.9555 26.9571 65.0149 28.5714 57.6086 35.6563C56.4534 36.7559 55.4763 37.9452 54.5853 39.1609H58.6178L57.681 41.835H52.864C52.4043 42.6779 51.9717 43.5132 51.6407 44.3624H57.3534L56.4395 47.0366H50.8255C49.8658 51.1198 50.4778 54.9303 52.8918 57.3492C57.5857 62.0403 67.495 60.3906 74.8971 53.3078C76.1927 52.0754 77.2617 50.7456 78.2277 49.3797H73.0478L73.8371 46.7118H79.8941C80.3372 45.8626 80.7468 45.0238 81.0647 44.1746H74.4464Z" fill="#fff"/>
</g>
<defs>
<clipPath id="clip0_343_78">
<rect width="203.254" height="60" fill="white" transform="translate(0.5)"/>
</clipPath>
</defs>
</svg>
