<svg width="218" height="60" viewBox="0 0 218 60" fill="none" xmlns="http://www.w3.org/2000/svg">
<g clip-path="url(#clip0_342_728)">
<path d="M9.5893 56.69V59.6411H0V48.0361H9.37989V50.9874H3.81727V52.3467H8.69456V55.1647H3.81727V56.69H9.5893Z" fill="#fff"/>
<path d="M29.0785 51.0704H25.7017V48.0363H36.3457V51.0704H32.9675V59.6412H29.0799L29.0785 51.0704Z" fill="#fff"/>
<path d="M42.7551 54.4185V48.0294H46.6431V54.2961C46.6431 56.0633 47.3228 56.7335 48.4103 56.7335C49.4978 56.7335 50.1773 56.0701 50.1773 54.2961V48.0294H53.9998V54.4185C53.9998 57.8999 51.9243 59.9063 48.3818 59.9063C44.8393 59.9063 42.7634 57.8999 42.7634 54.4185" fill="#fff"/>
<path d="M66.0888 56.5894C66.8081 56.5734 67.4927 56.2765 67.9958 55.7621C68.4989 55.2478 68.7804 54.5569 68.7804 53.8374C68.7804 53.1179 68.4989 52.427 67.9958 51.9127C67.4927 51.3983 66.8081 51.1013 66.0888 51.0853H64.4576V56.5894H66.0888ZM60.5684 48.0349H66.2521C70.1073 48.0349 72.7606 50.2398 72.7606 53.8381C72.7606 57.4363 70.1087 59.6412 66.2521 59.6412H60.5684V48.0349Z" fill="#fff"/>
<path d="M87.8307 53.838C87.7733 53.339 87.5728 52.8673 87.2533 52.4797C86.9337 52.0921 86.5089 51.8053 86.03 51.6537C85.551 51.5022 85.0384 51.4925 84.5541 51.6257C84.0698 51.7589 83.6343 52.0295 83.3002 52.4046C82.9662 52.7798 82.748 53.2435 82.6717 53.74C82.5953 54.2365 82.6643 54.7445 82.8701 55.2027C83.076 55.6609 83.41 56.0497 83.8319 56.3223C84.2538 56.5949 84.7454 56.7395 85.2477 56.7389C85.6129 56.7336 85.9732 56.6524 86.3054 56.5005C86.6376 56.3486 86.9344 56.1294 87.1773 55.8566C87.4201 55.5838 87.6038 55.2634 87.7162 54.9159C87.8287 54.5684 87.8677 54.2014 87.8307 53.838ZM78.7353 53.838C78.6436 52.5312 78.9471 51.227 79.6068 50.0952C80.2665 48.9635 81.2517 48.0565 82.434 47.4923C83.6163 46.9281 84.9409 46.7329 86.2357 46.932C87.5305 47.1311 88.7354 47.7153 89.6936 48.6087C90.6517 49.502 91.319 50.6631 91.6082 51.9408C91.8974 53.2185 91.7952 54.5536 91.3151 55.7725C90.835 56.9914 89.9991 58.0375 88.9163 58.7748C87.8335 59.512 86.5537 59.9063 85.2437 59.9062C84.4117 59.9618 83.5771 59.8462 82.7915 59.5666C82.0059 59.2871 81.286 58.8495 80.6761 58.2809C80.0662 57.7122 79.5792 57.0246 79.2454 56.2605C78.9115 55.4963 78.738 54.6719 78.7353 53.838Z" fill="#fff"/>
<path d="M107.929 58.7128L109.181 55.858C110.339 56.5297 111.649 56.8951 112.988 56.9197C114.091 56.9197 114.483 56.6873 114.483 56.289C114.483 54.8304 108.107 56.0076 108.107 51.6793C108.107 49.5247 109.903 47.7671 113.478 47.7671C114.99 47.738 116.485 48.0855 117.828 48.7784L116.659 51.6127C115.672 51.0743 114.57 50.7789 113.446 50.7509C112.309 50.7509 111.95 51.0825 111.95 51.4795C111.95 52.8715 118.327 51.712 118.327 55.9899C118.327 58.1119 116.532 59.9022 112.956 59.9022C111.206 59.9392 109.474 59.5284 107.927 58.7087" fill="#fff"/>
<path d="M134.373 56.69V59.6411H124.784V48.0361H134.164V50.9874H128.611V52.3467H133.488V55.1647H128.611V56.69H134.373Z" fill="#fff"/>
<path d="M151.353 48.0349H155.241V56.6058H160.447V59.6399H151.353V48.0349Z" fill="#fff"/>
<path d="M170.353 48.0361H166.465V59.6411H170.353V48.0361Z" fill="#fff"/>
<path d="M184.988 53.5226H188.366V58.43C186.867 59.3954 185.12 59.908 183.337 59.9062C182.505 59.9559 181.673 59.8343 180.89 59.5491C180.108 59.2638 179.393 58.8209 178.789 58.2478C178.184 57.6748 177.704 56.9838 177.378 56.2176C177.052 55.4514 176.887 54.6264 176.892 53.7937C176.898 52.961 177.074 52.1383 177.411 51.3766C177.748 50.615 178.237 49.9305 178.849 49.3658C179.461 48.801 180.183 48.368 180.969 48.0934C181.755 47.8189 182.589 47.7087 183.42 47.7698C184.411 47.7173 185.4 47.8916 186.314 48.2793C187.227 48.667 188.04 49.258 188.691 50.0073L186.203 52.2121C185.898 51.817 185.507 51.4967 185.06 51.2755C184.612 51.0543 184.12 50.9381 183.621 50.9357C182.869 50.9566 182.155 51.2681 181.629 51.8048C181.102 52.3414 180.804 53.0613 180.798 53.813C180.791 54.5648 181.077 55.2897 181.594 55.8354C182.111 56.3811 182.819 56.705 183.57 56.7389C184.057 56.7418 184.538 56.6461 184.987 56.4575L184.988 53.5226Z" fill="#fff"/>
<path d="M201.9 54.7991L200.78 51.8819L199.66 54.7991H201.9ZM202.971 57.6172H198.589L197.814 59.6399H193.859L198.901 48.0349H202.724L207.766 59.6399H203.746L202.971 57.6172Z" fill="#fff"/>
<path d="M213.101 57.8169C213.158 57.2799 213.412 56.7829 213.813 56.4217C214.215 56.0605 214.736 55.8607 215.276 55.8607C215.816 55.8607 216.337 56.0605 216.739 56.4217C217.14 56.7829 217.394 57.2799 217.451 57.8169C217.404 58.3613 217.154 58.8681 216.752 59.2374C216.349 59.6067 215.822 59.8115 215.276 59.8115C214.73 59.8115 214.203 59.6067 213.8 59.2374C213.398 58.8681 213.148 58.3613 213.101 57.8169ZM213.051 48.0294H217.5L216.758 55.1919H213.792L213.051 48.0294Z" fill="#fff"/>
<path d="M68.3728 13.9893H59.3643V36.5698H68.3728V13.9893Z" fill="#fff"/>
<path d="M83.72 0.09375H44.0181V8.7788H83.72V0.09375Z" fill="#fff"/>
<path d="M126.874 0.09375H90.624V8.7788H126.874V0.09375Z" fill="#fff"/>
<path d="M99.2565 22.6689H126.405V13.9838H90.626V36.5644H126.876V27.8794H99.2578L99.2565 22.6689Z" fill="#fff"/>
<path d="M27.6186 13.9893H12.1215C11.434 13.9853 10.776 13.7089 10.2919 13.2207C9.80774 12.7325 9.53704 12.0723 9.53885 11.3847C9.53668 10.6969 9.80737 10.0363 10.2916 9.54781C10.7757 9.0593 11.4337 8.78272 12.1215 8.77877H37.1153V0.09375H11.2231C8.23819 0.103109 5.37915 1.29777 3.27497 3.41494C1.1708 5.53212 -0.006046 8.3984 0.00298124 11.3833C-0.006046 14.3683 1.1708 17.2346 3.27497 19.3518C5.37915 21.4689 8.23819 22.6636 11.2231 22.6729H26.7501C27.4377 22.6765 28.0958 22.9528 28.5801 23.4411C29.0643 23.9294 29.3349 24.5899 29.3328 25.2775C29.3349 25.9652 29.0643 26.6256 28.5801 27.1139C28.0958 27.6022 27.4377 27.8785 26.7501 27.8821H0.00298124V36.5671H27.6213C30.6062 36.5578 33.4652 35.3631 35.5694 33.2459C37.6736 31.1288 38.8504 28.2625 38.8414 25.2775C38.8504 22.2926 37.6736 19.4263 35.5694 17.3091C33.4652 15.1919 30.6062 13.9973 27.6213 13.9879" fill="#fff"/>
<path d="M132.917 18.3325C132.917 28.4054 138.958 36.5712 151.042 36.5712H172.619V27.8862H151.568C144.664 27.8862 142.074 23.6096 142.074 18.3325C142.002 17.0641 142.197 15.7947 142.648 14.6068C143.099 13.419 143.795 12.3394 144.69 11.4382C145.586 10.5371 146.661 9.83451 147.846 9.37631C149.031 8.91812 150.299 8.71455 151.568 8.77881H172.619V0.09375H151.042C138.958 0.09375 132.917 8.25951 132.917 18.3325Z" fill="#fff"/>
<path d="M217.499 8.77879V0.0937762H208.868V0.11008L191.604 14.6853V4.47503C191.608 3.31723 191.152 2.20533 190.336 1.38358C189.521 0.561834 188.412 0.0974449 187.254 0.0924072H178.663V8.77746H182.978V27.8835H178.663V36.5685H187.294C188.442 36.5649 189.541 36.1055 190.351 35.2913C191.16 34.477 191.613 33.3747 191.61 32.2267V21.977L208.874 36.5522V36.5699H217.505V27.8848H212.036L200.722 18.3311L212.036 8.77746L217.499 8.77879Z" fill="#fff"/>
</g>
<defs>
<clipPath id="clip0_342_728">
<rect width="217.5" height="60" fill="white"/>
</clipPath>
</defs>
</svg>
